STARTFONT 2.3
FONT -FontForge-Shadows Into Light-Book-R-Normal--14-140-72-72-P-57-ISO10646-1
SIZE 14 72 72  2
FONTBOUNDINGBOX 20 23 -2 -6
COMMENT "Generated by fontforge, http://fontforge.sourceforge.net"
COMMENT "Copyright (c) 2010, Kimberly Geswein (kimberlygeswein.com)"
STARTPROPERTIES 40
FOUNDRY "FontForge"
FAMILY_NAME "Shadows Into Light"
WEIGHT_NAME "Book"
SLANT "R"
SETWIDTH_NAME "Normal"
ADD_STYLE_NAME ""
PIXEL_SIZE 14
POINT_SIZE 140
RESOLUTION_X 72
RESOLUTION_Y 72
SPACING "P"
AVERAGE_WIDTH 57
CHARSET_REGISTRY "ISO10646"
CHARSET_ENCODING "1"
FONTNAME_REGISTRY ""
CHARSET_COLLECTIONS "ISO8859-2 ISO8859-9 ISO8859-4 ISO10646-1"
BITS_PER_PIXEL 2
FONT_NAME "ShadowsIntoLight"
FACE_NAME "Shadows Into Light"
COPYRIGHT "Copyright (c) 2010, Kimberly Geswein (kimberlygeswein.com)"
FONT_VERSION "001.000"
FONT_ASCENT 11
FONT_DESCENT 3
UNDERLINE_POSITION 0
UNDERLINE_THICKNESS 0
X_HEIGHT 8
CAP_HEIGHT 9
RAW_ASCENT 799
RAW_DESCENT 200
NORM_SPACE 6
RELATIVE_WEIGHT 40
RELATIVE_SETWIDTH 50
SUPERSCRIPT_X 0
SUPERSCRIPT_Y 6
SUPERSCRIPT_SIZE 9
SUBSCRIPT_X 0
SUBSCRIPT_Y 1
SUBSCRIPT_SIZE 9
AVG_LOWERCASE_WIDTH 52
AVG_UPPERCASE_WIDTH 67
ENDPROPERTIES
CHARS 352
STARTCHAR space
ENCODING 32
SWIDTH 450 0
DWIDTH 6 0
BBX 1 1 0 0
BITMAP
00
ENDCHAR
STARTCHAR exclam
ENCODING 33
SWIDTH 137 0
DWIDTH 2 0
BBX 2 12 0 0
BITMAP
40
80
80
80
80
80
80
00
00
00
00
10
ENDCHAR
STARTCHAR quotedbl
ENCODING 34
SWIDTH 212 0
DWIDTH 3 0
BBX 3 4 0 7
BITMAP
84
54
54
54
ENDCHAR
STARTCHAR numbersign
ENCODING 35
SWIDTH 450 0
DWIDTH 6 0
BBX 5 8 1 1
BITMAP
0400
5500
6A00
A500
5640
6A00
A200
1000
ENDCHAR
STARTCHAR dollar
ENCODING 36
SWIDTH 445 0
DWIDTH 6 0
BBX 6 12 0 -1
BITMAP
0500
0500
0A40
2900
9500
C600
5A50
0220
0380
0B00
0200
0200
ENDCHAR
STARTCHAR percent
ENCODING 37
SWIDTH 450 0
DWIDTH 6 0
BBX 6 11 0 0
BITMAP
0080
6140
8600
9600
5200
0510
08A0
08A0
0450
0400
0400
ENDCHAR
STARTCHAR ampersand
ENCODING 38
SWIDTH 356 0
DWIDTH 5 0
BBX 5 7 0 1
BITMAP
0400
0800
1940
5E00
5D00
5900
0400
ENDCHAR
STARTCHAR quotesingle
ENCODING 39
SWIDTH 155 0
DWIDTH 2 0
BBX 2 4 0 5
BITMAP
40
50
50
50
ENDCHAR
STARTCHAR parenleft
ENCODING 40
SWIDTH 291 0
DWIDTH 4 0
BBX 4 12 0 0
BITMAP
01
05
08
20
20
50
80
80
80
50
20
18
ENDCHAR
STARTCHAR parenright
ENCODING 41
SWIDTH 241 0
DWIDTH 3 0
BBX 3 11 0 0
BITMAP
40
60
14
08
08
08
08
08
08
14
10
ENDCHAR
STARTCHAR asterisk
ENCODING 42
SWIDTH 481 0
DWIDTH 7 0
BBX 6 7 0 1
BITMAP
0400
0880
6A50
1F90
6E90
2610
1200
ENDCHAR
STARTCHAR plus
ENCODING 43
SWIDTH 466 0
DWIDTH 7 0
BBX 6 6 0 2
BITMAP
0400
0800
0810
1A50
5900
0500
ENDCHAR
STARTCHAR comma
ENCODING 44
SWIDTH 112 0
DWIDTH 2 0
BBX 2 4 0 -2
BITMAP
50
90
50
40
ENDCHAR
STARTCHAR hyphen
ENCODING 45
SWIDTH 399 0
DWIDTH 6 0
BBX 5 3 0 2
BITMAP
0040
1A40
5000
ENDCHAR
STARTCHAR period
ENCODING 46
SWIDTH 128 0
DWIDTH 2 0
BBX 2 1 0 0
BITMAP
50
ENDCHAR
STARTCHAR slash
ENCODING 47
SWIDTH 306 0
DWIDTH 4 0
BBX 4 11 0 -1
BITMAP
02
02
05
08
08
14
20
20
50
80
80
ENDCHAR
STARTCHAR zero
ENCODING 48
SWIDTH 308 0
DWIDTH 4 0
BBX 4 8 0 0
BITMAP
04
25
42
82
42
52
12
28
ENDCHAR
STARTCHAR one
ENCODING 49
SWIDTH 112 0
DWIDTH 2 0
BBX 1 9 0 0
BITMAP
40
80
80
80
80
80
80
40
40
ENDCHAR
STARTCHAR two
ENCODING 50
SWIDTH 512 0
DWIDTH 7 0
BBX 7 8 0 0
BITMAP
1A00
6140
4140
0200
0200
0500
09A4
1900
ENDCHAR
STARTCHAR three
ENCODING 51
SWIDTH 461 0
DWIDTH 6 0
BBX 6 10 0 0
BITMAP
0600
6540
4200
0900
1E90
2420
0020
0050
0280
0500
ENDCHAR
STARTCHAR four
ENCODING 52
SWIDTH 503 0
DWIDTH 7 0
BBX 7 11 0 0
BITMAP
0080
01C0
0380
0580
0880
2094
BA80
4080
0080
0080
0080
ENDCHAR
STARTCHAR five
ENCODING 53
SWIDTH 478 0
DWIDTH 7 0
BBX 7 10 0 0
BITMAP
0064
B940
6000
5000
5A80
6480
5080
0140
0600
0800
ENDCHAR
STARTCHAR six
ENCODING 54
SWIDTH 375 0
DWIDTH 5 0
BBX 5 11 0 0
BITMAP
2400
2000
2000
2000
5000
5140
8680
8840
A140
7200
2800
ENDCHAR
STARTCHAR seven
ENCODING 55
SWIDTH 458 0
DWIDTH 6 0
BBX 6 11 0 0
BITMAP
0050
6AA0
0050
0080
0080
0040
0140
0140
0240
0240
0140
ENDCHAR
STARTCHAR eight
ENCODING 56
SWIDTH 333 0
DWIDTH 5 0
BBX 4 10 0 0
BITMAP
0A
2B
91
82
51
28
0C
11
21
2A
ENDCHAR
STARTCHAR nine
ENCODING 57
SWIDTH 475 0
DWIDTH 7 0
BBX 6 10 0 0
BITMAP
0140
09A0
20A0
5260
8920
A420
0020
0020
0020
0020
ENDCHAR
STARTCHAR colon
ENCODING 58
SWIDTH 120 0
DWIDTH 2 0
BBX 1 5 0 1
BITMAP
40
00
00
40
40
ENDCHAR
STARTCHAR semicolon
ENCODING 59
SWIDTH 121 0
DWIDTH 2 0
BBX 2 6 0 -2
BITMAP
40
00
50
90
50
40
ENDCHAR
STARTCHAR less
ENCODING 60
SWIDTH 409 0
DWIDTH 6 0
BBX 6 7 0 2
BITMAP
0050
0180
0A00
2400
6000
1A00
01D0
ENDCHAR
STARTCHAR equal
ENCODING 61
SWIDTH 433 0
DWIDTH 6 0
BBX 6 4 0 1
BITMAP
1A80
1400
0690
6400
ENDCHAR
STARTCHAR greater
ENCODING 62
SWIDTH 450 0
DWIDTH 6 0
BBX 6 7 0 2
BITMAP
7400
0A40
0090
0090
0240
0900
2400
ENDCHAR
STARTCHAR question
ENCODING 63
SWIDTH 445 0
DWIDTH 6 0
BBX 6 13 0 0
BITMAP
1A90
A420
0020
0090
0240
0900
1800
0E40
0000
0000
0000
0000
0500
ENDCHAR
STARTCHAR at
ENCODING 64
SWIDTH 945 0
DWIDTH 13 0
BBX 13 13 0 0
BITMAP
00069000
00652400
01800800
05090200
08260200
208A0200
22160500
52625800
92805000
90000040
60000240
24006800
06AA4000
ENDCHAR
STARTCHAR A
ENCODING 65
SWIDTH 390 0
DWIDTH 5 0
BBX 7 11 0 0
BITMAP
1000
2400
2800
2500
2200
2200
62A4
6A40
6080
9080
4050
ENDCHAR
STARTCHAR B
ENCODING 66
SWIDTH 537 0
DWIDTH 8 0
BBX 7 10 0 0
BITMAP
4A90
A490
5140
56A8
3D08
3414
2060
2180
1600
1400
ENDCHAR
STARTCHAR C
ENCODING 67
SWIDTH 487 0
DWIDTH 7 0
BBX 7 10 0 0
BITMAP
0A80
1800
2000
2000
5000
5000
8014
8020
5080
2A00
ENDCHAR
STARTCHAR D
ENCODING 68
SWIDTH 554 0
DWIDTH 8 0
BBX 8 10 0 0
BITMAP
2A50
7418
2405
2405
1408
1414
1460
1580
0600
0800
ENDCHAR
STARTCHAR E
ENCODING 69
SWIDTH 474 0
DWIDTH 7 0
BBX 6 10 0 0
BITMAP
5680
7800
6000
2040
2640
3800
3010
3090
3640
2400
ENDCHAR
STARTCHAR F
ENCODING 70
SWIDTH 428 0
DWIDTH 6 0
BBX 6 10 0 0
BITMAP
0050
9A40
A400
9000
9010
9180
6900
6000
5000
1000
ENDCHAR
STARTCHAR G
ENCODING 71
SWIDTH 591 0
DWIDTH 8 0
BBX 8 11 0 -2
BITMAP
0190
0600
0800
2416
205D
501C
803C
9198
2A08
0008
0004
ENDCHAR
STARTCHAR H
ENCODING 72
SWIDTH 424 0
DWIDTH 6 0
BBX 6 9 0 0
BITMAP
8080
9080
9080
50C0
5680
7450
5050
5050
5010
ENDCHAR
STARTCHAR I
ENCODING 73
SWIDTH 153 0
DWIDTH 2 0
BBX 1 11 1 0
BITMAP
40
80
80
80
80
80
80
80
80
80
80
ENDCHAR
STARTCHAR J
ENCODING 74
SWIDTH 371 0
DWIDTH 5 0
BBX 5 11 0 -1
BITMAP
0200
0200
0240
0140
0140
0180
0080
0080
4080
5080
1A00
ENDCHAR
STARTCHAR K
ENCODING 75
SWIDTH 524 0
DWIDTH 7 0
BBX 7 10 0 0
BITMAP
4000
5050
5180
5200
2500
2800
3400
3AA8
2000
1000
ENDCHAR
STARTCHAR L
ENCODING 76
SWIDTH 537 0
DWIDTH 8 0
BBX 8 9 0 0
BITMAP
5000
9000
5000
5000
6000
6000
6029
6290
7900
ENDCHAR
STARTCHAR M
ENCODING 77
SWIDTH 682 0
DWIDTH 10 0
BBX 9 11 0 0
BITMAP
500100
740300
580600
550900
120940
215540
20A140
205080
300080
300080
300080
ENDCHAR
STARTCHAR N
ENCODING 78
SWIDTH 541 0
DWIDTH 8 0
BBX 7 11 0 0
BITMAP
0010
0014
9018
7408
6808
5608
2148
2098
2028
200C
2004
ENDCHAR
STARTCHAR O
ENCODING 79
SWIDTH 382 0
DWIDTH 5 0
BBX 5 10 0 0
BITMAP
0500
1A80
2080
6080
5080
8080
8080
8180
9200
3900
ENDCHAR
STARTCHAR P
ENCODING 80
SWIDTH 508 0
DWIDTH 7 0
BBX 7 12 0 0
BITMAP
0040
2AB4
7008
2018
2060
2640
3800
3000
2000
2000
2000
2000
ENDCHAR
STARTCHAR Q
ENCODING 81
SWIDTH 512 0
DWIDTH 7 0
BBX 7 11 0 0
BITMAP
0540
2960
3010
6014
5004
8044
8094
80A4
5030
2074
1A48
ENDCHAR
STARTCHAR R
ENCODING 82
SWIDTH 503 0
DWIDTH 7 0
BBX 7 11 0 0
BITMAP
56A0
7918
5020
5180
6900
6000
7900
5690
5068
5000
4000
ENDCHAR
STARTCHAR S
ENCODING 83
SWIDTH 541 0
DWIDTH 8 0
BBX 7 10 0 0
BITMAP
06A0
1800
6000
8000
8000
6500
0568
0008
01A0
0900
ENDCHAR
STARTCHAR T
ENCODING 84
SWIDTH 595 0
DWIDTH 8 0
BBX 10 10 0 0
BITMAP
01AA90
A99000
005000
005000
005000
006000
002000
002000
002000
002000
ENDCHAR
STARTCHAR U
ENCODING 85
SWIDTH 450 0
DWIDTH 6 0
BBX 6 11 0 -2
BITMAP
0010
9030
9060
5060
50A0
50A0
51A0
6220
2920
0020
0010
ENDCHAR
STARTCHAR V
ENCODING 86
SWIDTH 524 0
DWIDTH 7 0
BBX 7 10 0 0
BITMAP
0008
0008
9014
6024
2420
1820
0860
0650
0290
01C0
ENDCHAR
STARTCHAR W
ENCODING 87
SWIDTH 878 0
DWIDTH 12 0
BBX 12 11 0 0
BITMAP
000001
000002
400805
501D08
202608
202208
141214
1851A4
0C80A0
0A8060
074000
ENDCHAR
STARTCHAR X
ENCODING 88
SWIDTH 461 0
DWIDTH 6 0
BBX 6 10 0 0
BITMAP
0010
2020
2080
1940
0A00
0A00
0A00
2580
6080
4060
ENDCHAR
STARTCHAR Y
ENCODING 89
SWIDTH 483 0
DWIDTH 7 0
BBX 7 11 0 0
BITMAP
0004
0014
8020
6020
2450
0980
0280
0240
0200
0200
0500
ENDCHAR
STARTCHAR Z
ENCODING 90
SWIDTH 670 0
DWIDTH 9 0
BBX 9 10 0 0
BITMAP
6AA900
001900
001800
006000
008000
024000
090000
180000
200040
BFEA80
ENDCHAR
STARTCHAR bracketleft
ENCODING 91
SWIDTH 470 0
DWIDTH 7 0
BBX 6 18 0 -2
BITMAP
5690
9000
9000
5000
5000
5000
5000
2000
2000
2000
2000
2000
2000
2000
2000
2000
2A90
1400
ENDCHAR
STARTCHAR backslash
ENCODING 92
SWIDTH 554 0
DWIDTH 8 0
BBX 8 14 0 0
BITMAP
9000
2000
1400
0800
0800
0200
0200
0180
0080
0060
0020
0018
000C
0005
ENDCHAR
STARTCHAR bracketright
ENCODING 93
SWIDTH 512 0
DWIDTH 7 0
BBX 7 19 0 -2
BITMAP
1550
A574
0020
0020
0020
0020
0020
0020
0024
0014
0014
0014
0014
0014
0018
0018
0018
01B8
0140
ENDCHAR
STARTCHAR asciicircum
ENCODING 94
SWIDTH 390 0
DWIDTH 5 0
BBX 5 4 0 9
BITMAP
0C00
2600
2080
4040
ENDCHAR
STARTCHAR underscore
ENCODING 95
SWIDTH 612 0
DWIDTH 9 0
BBX 8 3 0 0
BITMAP
0005
05BA
6940
ENDCHAR
STARTCHAR grave
ENCODING 96
SWIDTH 155 0
DWIDTH 2 0
BBX 2 2 0 8
BITMAP
90
10
ENDCHAR
STARTCHAR a
ENCODING 97
SWIDTH 366 0
DWIDTH 5 0
BBX 5 8 0 0
BITMAP
0600
0E40
2640
6340
9680
8880
A480
9040
ENDCHAR
STARTCHAR b
ENCODING 98
SWIDTH 442 0
DWIDTH 6 0
BBX 6 12 0 0
BITMAP
5000
6000
6000
5000
5000
57D0
6820
6020
5090
5180
5A00
6400
ENDCHAR
STARTCHAR c
ENCODING 99
SWIDTH 390 0
DWIDTH 5 0
BBX 5 9 0 0
BITMAP
0400
2900
6500
5000
9000
8040
8080
5180
2A00
ENDCHAR
STARTCHAR d
ENCODING 100
SWIDTH 316 0
DWIDTH 4 0
BBX 4 14 0 -1
BITMAP
01
02
02
02
02
06
2A
62
82
83
86
8A
A2
02
ENDCHAR
STARTCHAR e
ENCODING 101
SWIDTH 461 0
DWIDTH 6 0
BBX 6 8 0 0
BITMAP
0500
1980
2180
7900
E010
5060
1180
2A00
ENDCHAR
STARTCHAR f
ENCODING 102
SWIDTH 345 0
DWIDTH 5 0
BBX 5 13 0 0
BITMAP
0400
1A00
1500
2400
2400
2000
2740
7400
2000
2400
1400
1400
1400
ENDCHAR
STARTCHAR g
ENCODING 103
SWIDTH 437 0
DWIDTH 6 0
BBX 6 14 0 -6
BITMAP
0280
09D0
21D0
2290
9590
8860
B460
0060
0060
0050
0090
0080
0240
1900
ENDCHAR
STARTCHAR h
ENCODING 104
SWIDTH 466 0
DWIDTH 7 0
BBX 7 10 0 0
BITMAP
9000
9000
9000
91A0
9720
9D20
A820
B020
A024
5024
ENDCHAR
STARTCHAR i
ENCODING 105
SWIDTH 132 0
DWIDTH 2 0
BBX 2 11 0 0
BITMAP
40
40
00
50
90
90
90
90
50
50
50
ENDCHAR
STARTCHAR j
ENCODING 106
SWIDTH 112 0
DWIDTH 2 0
BBX 4 16 -2 -5
BITMAP
04
00
00
00
08
08
08
09
05
05
05
05
05
05
88
24
ENDCHAR
STARTCHAR k
ENCODING 107
SWIDTH 428 0
DWIDTH 6 0
BBX 6 12 0 -1
BITMAP
1000
6000
6000
5060
51C0
5240
5A00
A800
B000
AA40
8190
4000
ENDCHAR
STARTCHAR l
ENCODING 108
SWIDTH 137 0
DWIDTH 2 0
BBX 2 12 0 0
BITMAP
80
80
40
50
50
50
50
50
50
50
60
50
ENDCHAR
STARTCHAR m
ENCODING 109
SWIDTH 579 0
DWIDTH 8 0
BBX 8 9 0 0
BITMAP
4000
9000
5928
5F2C
6A58
75C9
7189
7045
2001
ENDCHAR
STARTCHAR n
ENCODING 110
SWIDTH 483 0
DWIDTH 7 0
BBX 7 8 0 0
BITMAP
82D0
9620
5920
5820
6824
7424
3014
2010
ENDCHAR
STARTCHAR o
ENCODING 111
SWIDTH 266 0
DWIDTH 4 0
BBX 4 8 0 0
BITMAP
24
68
45
85
85
85
88
74
ENDCHAR
STARTCHAR p
ENCODING 112
SWIDTH 482 0
DWIDTH 7 0
BBX 7 11 0 -4
BITMAP
86A4
A814
9020
8180
5A00
7800
5000
5000
5000
8000
4000
ENDCHAR
STARTCHAR q
ENCODING 113
SWIDTH 408 0
DWIDTH 6 0
BBX 6 11 0 -4
BITMAP
0100
0980
2180
51C0
8280
9990
1450
0050
0020
0020
0020
ENDCHAR
STARTCHAR r
ENCODING 114
SWIDTH 396 0
DWIDTH 6 0
BBX 5 7 0 0
BITMAP
8780
5C00
6800
2800
3400
3400
2400
ENDCHAR
STARTCHAR s
ENCODING 115
SWIDTH 366 0
DWIDTH 5 0
BBX 5 7 0 0
BITMAP
1A00
2000
9000
9A80
1480
0240
1900
ENDCHAR
STARTCHAR t
ENCODING 116
SWIDTH 268 0
DWIDTH 4 0
BBX 5 11 -1 0
BITMAP
0400
0800
0800
0A80
6D00
6800
1800
0800
0800
0800
0800
ENDCHAR
STARTCHAR u
ENCODING 117
SWIDTH 387 0
DWIDTH 5 0
BBX 5 7 0 0
BITMAP
4040
9180
5180
5180
5280
5680
2880
ENDCHAR
STARTCHAR v
ENCODING 118
SWIDTH 354 0
DWIDTH 5 0
BBX 5 8 0 0
BITMAP
0040
0180
8180
6180
2540
1940
0B40
0240
ENDCHAR
STARTCHAR w
ENCODING 119
SWIDTH 566 0
DWIDTH 8 0
BBX 8 7 0 0
BITMAP
8345
6285
2655
1A29
0E1D
0909
0500
ENDCHAR
STARTCHAR x
ENCODING 120
SWIDTH 454 0
DWIDTH 6 0
BBX 6 10 0 -1
BITMAP
0100
0200
4200
6200
1A00
0A00
0A80
0860
1810
1400
ENDCHAR
STARTCHAR y
ENCODING 121
SWIDTH 363 0
DWIDTH 5 0
BBX 5 12 0 -5
BITMAP
4080
9080
2080
1880
0980
0380
0180
0180
0140
0140
0140
0140
ENDCHAR
STARTCHAR z
ENCODING 122
SWIDTH 618 0
DWIDTH 9 0
BBX 9 7 0 0
BITMAP
019000
699000
008000
024000
020000
051A80
0BA400
ENDCHAR
STARTCHAR braceleft
ENCODING 123
SWIDTH 348 0
DWIDTH 5 0
BBX 5 13 0 -1
BITMAP
0A40
2000
2000
2000
1800
A000
2000
6400
9000
8000
8000
6000
2D00
ENDCHAR
STARTCHAR bar
ENCODING 124
SWIDTH 137 0
DWIDTH 2 0
BBX 2 12 0 0
BITMAP
80
80
40
50
50
50
50
50
50
50
60
50
ENDCHAR
STARTCHAR braceright
ENCODING 125
SWIDTH 348 0
DWIDTH 5 0
BBX 5 14 0 -2
BITMAP
6400
4900
0500
0500
0800
0A00
0600
0900
0740
0140
0140
0200
1900
1400
ENDCHAR
STARTCHAR asciitilde
ENCODING 126
SWIDTH 458 0
DWIDTH 6 0
BBX 6 2 0 8
BITMAP
2920
5290
ENDCHAR
STARTCHAR nonbreakingspace
ENCODING 160
SWIDTH 450 0
DWIDTH 6 0
BBX 1 1 0 0
BITMAP
00
ENDCHAR
STARTCHAR exclamdown
ENCODING 161
SWIDTH 137 0
DWIDTH 2 0
BBX 2 9 0 -2
BITMAP
10
00
00
40
80
80
80
80
40
ENDCHAR
STARTCHAR cent
ENCODING 162
SWIDTH 394 0
DWIDTH 6 0
BBX 5 11 0 -1
BITMAP
0800
0800
2E00
2940
5400
9400
8440
8480
5580
2A00
0500
ENDCHAR
STARTCHAR sterling
ENCODING 163
SWIDTH 539 0
DWIDTH 8 0
BBX 7 10 0 0
BITMAP
0010
0198
0600
0800
6E40
1400
1400
2400
25A4
1958
ENDCHAR
STARTCHAR currency
ENCODING 164
SWIDTH 500 0
DWIDTH 7 0
BBX 6 8 0 1
BITMAP
0020
1B90
0880
1480
0880
19C0
2680
5040
ENDCHAR
STARTCHAR yen
ENCODING 165
SWIDTH 478 0
DWIDTH 7 0
BBX 5 12 1 0
BITMAP
0040
9180
6240
3600
1D00
0C00
0940
AE40
5E40
5800
0800
0800
ENDCHAR
STARTCHAR brokenbar
ENCODING 166
SWIDTH 137 0
DWIDTH 2 0
BBX 2 12 0 0
BITMAP
80
80
50
50
50
00
50
10
10
50
60
50
ENDCHAR
STARTCHAR section
ENCODING 167
SWIDTH 366 0
DWIDTH 5 0
BBX 5 11 0 0
BITMAP
0100
2500
5000
8100
AA80
2180
9200
AF80
1480
0240
1900
ENDCHAR
STARTCHAR dieresis
ENCODING 168
SWIDTH 306 0
DWIDTH 4 0
BBX 3 2 1 9
BITMAP
44
44
ENDCHAR
STARTCHAR copyright
ENCODING 169
SWIDTH 485 0
DWIDTH 7 0
BBX 7 10 0 0
BITMAP
0140
0A60
2524
2A58
5818
9824
88B0
86A0
9180
3E00
ENDCHAR
STARTCHAR ordfeminine
ENCODING 170
SWIDTH 227 0
DWIDTH 3 0
BBX 3 4 0 2
BITMAP
14
58
54
94
ENDCHAR
STARTCHAR guillemotleft
ENCODING 171
SWIDTH 652 0
DWIDTH 9 0
BBX 8 7 0 2
BITMAP
0052
0199
0A64
2580
6180
1A64
01DA
ENDCHAR
STARTCHAR logicalnot
ENCODING 172
SWIDTH 539 0
DWIDTH 8 0
BBX 6 4 1 2
BITMAP
5590
5560
0020
0020
ENDCHAR
STARTCHAR uni00AD
ENCODING 173
SWIDTH 399 0
DWIDTH 6 0
BBX 5 3 0 2
BITMAP
0040
1A40
5000
ENDCHAR
STARTCHAR registered
ENCODING 174
SWIDTH 382 0
DWIDTH 5 0
BBX 7 10 0 0
BITMAP
0100
0AD0
2020
29A4
5998
8E18
8AA4
8470
9090
3E40
ENDCHAR
STARTCHAR macron
ENCODING 175
SWIDTH 399 0
DWIDTH 6 0
BBX 5 2 0 9
BITMAP
0140
6940
ENDCHAR
STARTCHAR degree
ENCODING 176
SWIDTH 201 0
DWIDTH 3 0
BBX 3 3 0 5
BITMAP
20
84
50
ENDCHAR
STARTCHAR plusminus
ENCODING 177
SWIDTH 466 0
DWIDTH 7 0
BBX 5 7 0 1
BITMAP
0400
0800
0800
1A80
5900
0500
2A80
ENDCHAR
STARTCHAR twosuperior
ENCODING 178
SWIDTH 318 0
DWIDTH 4 0
BBX 4 5 0 2
BITMAP
10
44
04
10
25
ENDCHAR
STARTCHAR threesuperior
ENCODING 179
SWIDTH 280 0
DWIDTH 4 0
BBX 4 6 0 2
BITMAP
14
44
24
11
05
14
ENDCHAR
STARTCHAR acute
ENCODING 180
SWIDTH 155 0
DWIDTH 2 0
BBX 2 2 0 8
BITMAP
60
40
ENDCHAR
STARTCHAR mu
ENCODING 181
SWIDTH 387 0
DWIDTH 5 0
BBX 5 10 0 -2
BITMAP
4040
9180
9180
9180
9280
9380
A980
9000
8000
4000
ENDCHAR
STARTCHAR paragraph
ENCODING 182
SWIDTH 447 0
DWIDTH 6 0
BBX 6 9 0 0
BITMAP
1BD0
7F50
BF50
1650
0160
0160
0160
0160
0150
ENDCHAR
STARTCHAR periodcentered
ENCODING 183
SWIDTH 128 0
DWIDTH 2 0
BBX 2 1 0 3
BITMAP
90
ENDCHAR
STARTCHAR cedilla
ENCODING 184
SWIDTH 322 0
DWIDTH 5 0
BBX 3 6 1 -5
BITMAP
40
80
E0
1C
A8
40
ENDCHAR
STARTCHAR onesuperior
ENCODING 185
SWIDTH 112 0
DWIDTH 2 0
BBX 1 5 0 2
BITMAP
40
80
80
80
40
ENDCHAR
STARTCHAR ordmasculine
ENCODING 186
SWIDTH 212 0
DWIDTH 3 0
BBX 3 4 0 2
BITMAP
64
88
88
94
ENDCHAR
STARTCHAR guillemotright
ENCODING 187
SWIDTH 625 0
DWIDTH 9 0
BBX 8 8 0 2
BITMAP
0100
7590
0A68
0092
0096
0258
09A0
2640
ENDCHAR
STARTCHAR onequarter
ENCODING 188
SWIDTH 678 0
DWIDTH 10 0
BBX 9 11 0 -1
BITMAP
010000
020000
420000
850D00
882900
885500
959A40
654500
200500
500500
400000
ENDCHAR
STARTCHAR onehalf
ENCODING 189
SWIDTH 693 0
DWIDTH 10 0
BBX 8 11 0 -1
BITMAP
0080
0080
0140
5200
5260
5644
5814
1820
1421
1064
2000
ENDCHAR
STARTCHAR threequarters
ENCODING 190
SWIDTH 868 0
DWIDTH 12 0
BBX 9 11 1 -1
BITMAP
000800
980900
041900
252900
513500
027240
05E600
248100
004100
014100
020000
ENDCHAR
STARTCHAR questiondown
ENCODING 191
SWIDTH 541 0
DWIDTH 8 0
BBX 6 12 1 -1
BITMAP
0200
0000
0000
0000
0500
0280
0240
0900
2400
9000
80A0
6940
ENDCHAR
STARTCHAR Agrave
ENCODING 192
SWIDTH 390 0
DWIDTH 5 0
BBX 7 12 0 0
BITMAP
1800
1800
1800
2800
2500
2200
2200
21A4
3A80
6080
5050
5010
ENDCHAR
STARTCHAR Aacute
ENCODING 193
SWIDTH 390 0
DWIDTH 5 0
BBX 7 13 0 0
BITMAP
1400
2000
1000
2400
2800
2500
2200
2200
62A4
6A40
6080
9080
4050
ENDCHAR
STARTCHAR Acircumflex
ENCODING 194
SWIDTH 390 0
DWIDTH 5 0
BBX 8 14 -1 0
BITMAP
0900
1640
2080
5400
0900
0A00
0940
0880
0880
18A9
1A90
1820
2420
1014
ENDCHAR
STARTCHAR Atilde
ENCODING 195
SWIDTH 390 0
DWIDTH 5 0
BBX 7 14 0 0
BITMAP
A880
8A80
0100
1000
2400
2800
2500
2200
2200
62A4
6A40
6080
9080
4050
ENDCHAR
STARTCHAR Adieresis
ENCODING 196
SWIDTH 390 0
DWIDTH 5 0
BBX 7 13 0 0
BITMAP
1100
1500
1000
2400
2800
2500
2200
2200
62A4
6A40
6080
9080
4050
ENDCHAR
STARTCHAR Aring
ENCODING 197
SWIDTH 390 0
DWIDTH 5 0
BBX 7 13 0 0
BITMAP
1400
9900
A800
2400
2800
2500
2200
2200
62A4
6A40
6080
9080
4050
ENDCHAR
STARTCHAR AE
ENCODING 198
SWIDTH 708 0
DWIDTH 10 0
BBX 10 11 0 0
BITMAP
100000
248A40
28E400
258000
228140
229900
62E000
6AD010
60D180
909900
406000
ENDCHAR
STARTCHAR Ccedilla
ENCODING 199
SWIDTH 487 0
DWIDTH 7 0
BBX 7 15 0 -5
BITMAP
0A80
1800
2000
2000
5000
5000
8014
8020
5080
2A00
0800
0A00
01C0
05D0
0500
ENDCHAR
STARTCHAR Egrave
ENCODING 200
SWIDTH 474 0
DWIDTH 7 0
BBX 6 12 0 0
BITMAP
0800
0400
5680
7800
6000
2040
2640
3800
3010
3090
3640
2400
ENDCHAR
STARTCHAR Eacute
ENCODING 201
SWIDTH 474 0
DWIDTH 7 0
BBX 6 12 0 0
BITMAP
0200
0500
5680
7800
6000
2040
2640
3800
3010
3090
3640
2400
ENDCHAR
STARTCHAR Ecircumflex
ENCODING 202
SWIDTH 474 0
DWIDTH 7 0
BBX 6 15 0 0
BITMAP
0600
0980
1460
1010
0000
5680
7800
6000
2040
2640
3800
3010
3090
3640
2400
ENDCHAR
STARTCHAR Edieresis
ENCODING 203
SWIDTH 474 0
DWIDTH 7 0
BBX 6 13 0 0
BITMAP
0440
0500
0000
5680
7800
6000
2040
2640
3800
3010
3090
3640
2400
ENDCHAR
STARTCHAR Igrave
ENCODING 204
SWIDTH 153 0
DWIDTH 2 0
BBX 2 13 0 0
BITMAP
90
10
10
20
20
20
20
20
20
20
20
20
20
ENDCHAR
STARTCHAR Iacute
ENCODING 205
SWIDTH 153 0
DWIDTH 2 0
BBX 2 13 0 0
BITMAP
20
50
10
20
20
20
20
20
20
20
20
20
20
ENDCHAR
STARTCHAR Icircumflex
ENCODING 206
SWIDTH 153 0
DWIDTH 2 0
BBX 5 14 -1 0
BITMAP
1800
2600
8140
4440
0800
0800
0800
0800
0800
0800
0800
0800
0800
0800
ENDCHAR
STARTCHAR Idieresis
ENCODING 207
SWIDTH 153 0
DWIDTH 2 0
BBX 3 13 0 0
BITMAP
44
44
10
20
20
20
20
20
20
20
20
20
20
ENDCHAR
STARTCHAR Eth
ENCODING 208
SWIDTH 554 0
DWIDTH 8 0
BBX 8 10 0 0
BITMAP
2A50
7418
2405
2405
1408
1414
6A60
6980
0600
0800
ENDCHAR
STARTCHAR Ntilde
ENCODING 209
SWIDTH 541 0
DWIDTH 8 0
BBX 7 13 0 0
BITMAP
2920
5290
0010
0014
9018
7408
6808
5608
2148
2098
2028
200C
2004
ENDCHAR
STARTCHAR Ograve
ENCODING 210
SWIDTH 382 0
DWIDTH 5 0
BBX 5 12 0 0
BITMAP
0200
0140
0500
1A80
2080
6080
5080
8080
8080
8180
9200
3900
ENDCHAR
STARTCHAR Oacute
ENCODING 211
SWIDTH 382 0
DWIDTH 5 0
BBX 5 12 0 0
BITMAP
0900
0400
0500
1A80
2080
6080
5080
8080
8080
8180
9200
3900
ENDCHAR
STARTCHAR Ocircumflex
ENCODING 212
SWIDTH 382 0
DWIDTH 5 0
BBX 5 13 0 0
BITMAP
0C00
2200
5180
4540
1A80
2080
6080
5080
8080
8080
8180
9200
3900
ENDCHAR
STARTCHAR Otilde
ENCODING 213
SWIDTH 382 0
DWIDTH 5 0
BBX 6 12 0 0
BITMAP
2920
5290
0500
1A80
2080
6080
5080
8080
8080
8180
9200
3900
ENDCHAR
STARTCHAR Odieresis
ENCODING 214
SWIDTH 382 0
DWIDTH 5 0
BBX 5 12 0 0
BITMAP
0440
0440
0500
1A80
2080
6080
5080
8080
8080
8180
9200
3900
ENDCHAR
STARTCHAR multiply
ENCODING 215
SWIDTH 454 0
DWIDTH 6 0
BBX 4 5 1 2
BITMAP
41
56
28
68
85
ENDCHAR
STARTCHAR Oslash
ENCODING 216
SWIDTH 382 0
DWIDTH 5 0
BBX 5 11 0 -1
BITMAP
0540
1A80
2280
6280
5580
8880
8880
9580
A200
3900
1000
ENDCHAR
STARTCHAR Ugrave
ENCODING 217
SWIDTH 450 0
DWIDTH 6 0
BBX 6 13 0 -2
BITMAP
0900
0100
0010
9030
9060
5060
50A0
50A0
51A0
6220
2920
0020
0010
ENDCHAR
STARTCHAR Uacute
ENCODING 218
SWIDTH 450 0
DWIDTH 6 0
BBX 6 12 0 -2
BITMAP
0200
0510
9030
9060
5060
50A0
50A0
51A0
6220
2920
0020
0010
ENDCHAR
STARTCHAR Ucircumflex
ENCODING 219
SWIDTH 450 0
DWIDTH 6 0
BBX 6 15 0 -2
BITMAP
0900
1540
2090
1010
0010
9030
9060
5060
50A0
50A0
51A0
6220
2920
0020
0010
ENDCHAR
STARTCHAR Udieresis
ENCODING 220
SWIDTH 450 0
DWIDTH 6 0
BBX 6 13 0 -2
BITMAP
0440
0440
0010
9030
9060
5060
50A0
50A0
51A0
6220
2920
0020
0010
ENDCHAR
STARTCHAR Yacute
ENCODING 221
SWIDTH 483 0
DWIDTH 7 0
BBX 7 13 0 0
BITMAP
0180
0200
0004
0014
8020
6020
2450
0980
0280
0240
0200
0200
0500
ENDCHAR
STARTCHAR Thorn
ENCODING 222
SWIDTH 398 0
DWIDTH 6 0
BBX 6 11 0 0
BITMAP
5000
5000
5A80
7490
9090
9080
9240
A800
9000
9000
5000
ENDCHAR
STARTCHAR germandbls
ENCODING 223
SWIDTH 537 0
DWIDTH 8 0
BBX 7 10 0 0
BITMAP
4A90
A490
5140
56A8
3D08
3414
2060
2180
1600
1400
ENDCHAR
STARTCHAR agrave
ENCODING 224
SWIDTH 366 0
DWIDTH 5 0
BBX 5 10 0 0
BITMAP
1800
0400
0600
0E40
2640
6340
9680
8880
A480
9040
ENDCHAR
STARTCHAR aacute
ENCODING 225
SWIDTH 366 0
DWIDTH 5 0
BBX 5 10 0 0
BITMAP
0600
0800
0600
0E40
2640
6340
9680
8880
A480
9040
ENDCHAR
STARTCHAR acircumflex
ENCODING 226
SWIDTH 366 0
DWIDTH 5 0
BBX 5 13 0 0
BITMAP
1800
2200
5180
4040
0000
0600
0E40
2640
6340
9680
8880
A480
9040
ENDCHAR
STARTCHAR atilde
ENCODING 227
SWIDTH 366 0
DWIDTH 5 0
BBX 6 11 0 0
BITMAP
6850
4680
0000
0600
0E40
2640
6340
9680
8880
A480
9040
ENDCHAR
STARTCHAR adieresis
ENCODING 228
SWIDTH 366 0
DWIDTH 5 0
BBX 5 11 0 0
BITMAP
1100
1100
0000
0600
0E40
2640
6340
9680
8880
A480
9040
ENDCHAR
STARTCHAR aring
ENCODING 229
SWIDTH 366 0
DWIDTH 5 0
BBX 5 10 0 0
BITMAP
0500
2640
1A40
0E40
2640
6340
9680
8880
A480
9040
ENDCHAR
STARTCHAR ae
ENCODING 230
SWIDTH 705 0
DWIDTH 10 0
BBX 10 8 0 0
BITMAP
061A00
0E6240
26AA00
63E000
96C050
88C180
A4D600
90A400
ENDCHAR
STARTCHAR ccedilla
ENCODING 231
SWIDTH 390 0
DWIDTH 5 0
BBX 5 14 0 -5
BITMAP
0400
2900
6500
5000
9000
8040
8080
5180
2A00
1400
1D00
0240
1B40
0400
ENDCHAR
STARTCHAR egrave
ENCODING 232
SWIDTH 461 0
DWIDTH 6 0
BBX 6 10 0 0
BITMAP
0900
0100
0500
1980
2180
7900
E010
5060
1180
2A00
ENDCHAR
STARTCHAR eacute
ENCODING 233
SWIDTH 461 0
DWIDTH 6 0
BBX 6 10 0 0
BITMAP
0240
0500
0500
1980
2180
7900
E010
5060
1180
2A00
ENDCHAR
STARTCHAR ecircumflex
ENCODING 234
SWIDTH 461 0
DWIDTH 6 0
BBX 6 13 0 0
BITMAP
0A00
1940
2090
1010
0000
0500
1980
2180
7900
E010
5060
1180
2A00
ENDCHAR
STARTCHAR edieresis
ENCODING 235
SWIDTH 461 0
DWIDTH 6 0
BBX 6 11 0 0
BITMAP
0440
0440
0000
0500
1980
2180
7900
E010
5060
1180
2A00
ENDCHAR
STARTCHAR igrave
ENCODING 236
SWIDTH 132 0
DWIDTH 2 0
BBX 2 11 0 0
BITMAP
80
50
00
50
90
90
90
90
50
50
50
ENDCHAR
STARTCHAR iacute
ENCODING 237
SWIDTH 132 0
DWIDTH 2 0
BBX 2 12 0 0
BITMAP
20
50
00
00
50
90
90
90
90
50
50
50
ENDCHAR
STARTCHAR icircumflex
ENCODING 238
SWIDTH 132 0
DWIDTH 2 0
BBX 5 13 -2 0
BITMAP
0D00
1600
2080
4000
0000
0500
0900
0900
0900
0900
0500
0500
0500
ENDCHAR
STARTCHAR idieresis
ENCODING 239
SWIDTH 132 0
DWIDTH 2 0
BBX 3 11 -1 0
BITMAP
14
54
00
14
24
24
24
24
14
14
14
ENDCHAR
STARTCHAR eth
ENCODING 240
SWIDTH 481 0
DWIDTH 7 0
BBX 6 9 1 0
BITMAP
1400
0800
0950
2B40
1200
A940
8740
8300
6900
ENDCHAR
STARTCHAR ntilde
ENCODING 241
SWIDTH 483 0
DWIDTH 7 0
BBX 7 12 0 0
BITMAP
2A20
22A0
0040
0000
82D0
9620
5920
5820
6824
7424
3014
2010
ENDCHAR
STARTCHAR ograve
ENCODING 242
SWIDTH 266 0
DWIDTH 4 0
BBX 4 10 0 0
BITMAP
20
14
24
68
45
85
85
85
88
74
ENDCHAR
STARTCHAR oacute
ENCODING 243
SWIDTH 266 0
DWIDTH 4 0
BBX 4 10 0 0
BITMAP
08
10
24
68
45
85
85
85
88
74
ENDCHAR
STARTCHAR ocircumflex
ENCODING 244
SWIDTH 266 0
DWIDTH 4 0
BBX 5 13 -1 0
BITMAP
0D00
2600
2080
4000
0000
0900
1A00
1140
2140
2140
2140
2200
1D00
ENDCHAR
STARTCHAR otilde
ENCODING 245
SWIDTH 266 0
DWIDTH 4 0
BBX 6 11 -1 0
BITMAP
2920
5290
0000
0900
1A00
1140
2140
2140
2140
2200
1D00
ENDCHAR
STARTCHAR odieresis
ENCODING 246
SWIDTH 266 0
DWIDTH 4 0
BBX 4 11 0 0
BITMAP
14
54
00
24
68
45
85
85
85
88
74
ENDCHAR
STARTCHAR divide
ENCODING 247
SWIDTH 345 0
DWIDTH 5 0
BBX 5 5 0 1
BITMAP
0400
1640
5500
0400
0400
ENDCHAR
STARTCHAR oslash
ENCODING 248
SWIDTH 266 0
DWIDTH 4 0
BBX 4 9 0 -1
BITMAP
26
69
49
99
A5
A5
98
B4
80
ENDCHAR
STARTCHAR ugrave
ENCODING 249
SWIDTH 387 0
DWIDTH 5 0
BBX 5 10 0 0
BITMAP
0800
0400
0000
4040
9180
5180
5180
5280
5680
2880
ENDCHAR
STARTCHAR uacute
ENCODING 250
SWIDTH 387 0
DWIDTH 5 0
BBX 5 10 0 0
BITMAP
0600
0400
0000
4040
9180
5180
5180
5280
5680
2880
ENDCHAR
STARTCHAR ucircumflex
ENCODING 251
SWIDTH 387 0
DWIDTH 5 0
BBX 5 13 0 0
BITMAP
0C00
2200
5080
4040
0000
0000
4040
9180
5180
5180
5280
5680
2880
ENDCHAR
STARTCHAR udieresis
ENCODING 252
SWIDTH 387 0
DWIDTH 5 0
BBX 5 11 0 0
BITMAP
1100
1100
0000
0000
4040
9180
5180
5180
5280
5680
2880
ENDCHAR
STARTCHAR yacute
ENCODING 253
SWIDTH 363 0
DWIDTH 5 0
BBX 5 15 0 -5
BITMAP
0600
0800
0000
4080
9080
2080
1880
0980
0380
0180
0180
0140
0140
0140
0140
ENDCHAR
STARTCHAR thorn
ENCODING 254
SWIDTH 439 0
DWIDTH 6 0
BBX 6 9 0 0
BITMAP
9140
9920
A060
5080
5600
7800
6000
5000
5000
ENDCHAR
STARTCHAR ydieresis
ENCODING 255
SWIDTH 363 0
DWIDTH 5 0
BBX 5 16 0 -5
BITMAP
1100
1100
0000
0000
4080
9080
2080
1880
0980
0380
0180
0180
0140
0140
0140
0140
ENDCHAR
STARTCHAR Amacron
ENCODING 256
SWIDTH 390 0
DWIDTH 5 0
BBX 7 13 0 0
BITMAP
0540
A540
1000
2400
2800
2500
2200
2200
62A4
6A40
6080
9080
4050
ENDCHAR
STARTCHAR amacron
ENCODING 257
SWIDTH 366 0
DWIDTH 5 0
BBX 5 11 0 0
BITMAP
0540
A540
0000
0600
0E40
2640
6340
9680
8880
A480
9040
ENDCHAR
STARTCHAR Abreve
ENCODING 258
SWIDTH 390 0
DWIDTH 5 0
BBX 7 13 0 0
BITMAP
2600
1800
1000
2400
2800
2500
2200
2200
62A4
6A40
6080
9080
4050
ENDCHAR
STARTCHAR abreve
ENCODING 259
SWIDTH 366 0
DWIDTH 5 0
BBX 5 10 0 0
BITMAP
2640
0900
0600
0E40
2640
6340
9680
8880
A480
9040
ENDCHAR
STARTCHAR Aogonek
ENCODING 260
SWIDTH 390 0
DWIDTH 5 0
BBX 7 15 0 -4
BITMAP
1000
2400
2800
2500
2200
2200
62A4
6A40
6080
9080
4050
0080
0240
01A4
0050
ENDCHAR
STARTCHAR aogonek
ENCODING 261
SWIDTH 366 0
DWIDTH 5 0
BBX 6 11 0 -3
BITMAP
0600
0E40
2640
6340
9680
8880
A480
9180
0200
0210
01A0
ENDCHAR
STARTCHAR Cacute
ENCODING 262
SWIDTH 487 0
DWIDTH 7 0
BBX 7 12 0 0
BITMAP
0240
0600
0A80
1800
2000
2000
5000
5000
8014
8020
5080
2A00
ENDCHAR
STARTCHAR cacute
ENCODING 263
SWIDTH 390 0
DWIDTH 5 0
BBX 5 11 0 0
BITMAP
0900
0800
0400
2900
6500
5000
9000
8040
8080
5180
2A00
ENDCHAR
STARTCHAR Ccircumflex
ENCODING 264
SWIDTH 487 0
DWIDTH 7 0
BBX 7 14 0 0
BITMAP
0600
0940
2050
1010
0A80
1800
2000
2000
5000
5000
8014
8020
5080
2A00
ENDCHAR
STARTCHAR ccircumflex
ENCODING 265
SWIDTH 390 0
DWIDTH 5 0
BBX 5 13 0 0
BITMAP
0C00
2200
5080
4040
0400
2900
6500
5000
9000
8040
8080
5180
2A00
ENDCHAR
STARTCHAR Cdotaccent
ENCODING 266
SWIDTH 487 0
DWIDTH 7 0
BBX 7 13 0 0
BITMAP
0100
0100
0000
0A80
1800
2000
2000
5000
5000
8014
8020
5080
2A00
ENDCHAR
STARTCHAR cdotaccent
ENCODING 267
SWIDTH 390 0
DWIDTH 5 0
BBX 5 10 0 0
BITMAP
0400
0400
2900
6500
5000
8000
8040
8080
5180
2A00
ENDCHAR
STARTCHAR Ccaron
ENCODING 268
SWIDTH 487 0
DWIDTH 7 0
BBX 7 13 0 0
BITMAP
1450
0940
0100
0A80
1800
2000
2000
5000
5000
8014
8020
5080
2A00
ENDCHAR
STARTCHAR ccaron
ENCODING 269
SWIDTH 390 0
DWIDTH 5 0
BBX 5 11 0 0
BITMAP
5080
1600
0400
2900
6500
5000
9000
8040
8080
5180
2A00
ENDCHAR
STARTCHAR Dcaron
ENCODING 270
SWIDTH 554 0
DWIDTH 8 0
BBX 8 13 0 0
BITMAP
0824
0280
0100
2A50
7418
2405
2405
1408
1414
1460
1580
0600
0800
ENDCHAR
STARTCHAR Emacron
ENCODING 274
SWIDTH 474 0
DWIDTH 7 0
BBX 6 13 0 0
BITMAP
0150
6940
0000
5680
7800
6000
2040
2640
3800
3010
3090
3640
2400
ENDCHAR
STARTCHAR emacron
ENCODING 275
SWIDTH 461 0
DWIDTH 6 0
BBX 6 11 0 0
BITMAP
0150
2950
0000
0500
1980
2180
7900
E010
5060
1180
2A00
ENDCHAR
STARTCHAR Ebreve
ENCODING 276
SWIDTH 474 0
DWIDTH 7 0
BBX 6 13 0 0
BITMAP
0980
0600
0000
5680
7800
6000
2040
2640
3800
3010
3090
3640
2400
ENDCHAR
STARTCHAR ebreve
ENCODING 277
SWIDTH 461 0
DWIDTH 6 0
BBX 6 10 0 0
BITMAP
0980
0600
0500
1980
2180
7900
E010
5060
1180
2A00
ENDCHAR
STARTCHAR Edotaccent
ENCODING 278
SWIDTH 474 0
DWIDTH 7 0
BBX 6 12 0 0
BITMAP
0400
0400
5680
7800
6000
2040
2640
3800
3010
3090
3640
2400
ENDCHAR
STARTCHAR edotaccent
ENCODING 279
SWIDTH 461 0
DWIDTH 6 0
BBX 6 9 0 0
BITMAP
0100
0600
1980
2180
7900
E010
5060
1180
2A00
ENDCHAR
STARTCHAR Eogonek
ENCODING 280
SWIDTH 474 0
DWIDTH 7 0
BBX 6 12 0 -2
BITMAP
5680
7800
6000
2040
2640
3800
3010
3090
3740
2600
0260
0040
ENDCHAR
STARTCHAR eogonek
ENCODING 281
SWIDTH 461 0
DWIDTH 6 0
BBX 6 11 0 -3
BITMAP
0500
1980
2180
7900
E010
5060
1180
2A00
0800
0840
0A80
ENDCHAR
STARTCHAR Ecaron
ENCODING 282
SWIDTH 474 0
DWIDTH 7 0
BBX 6 13 0 0
BITMAP
2090
0A00
0400
5680
7800
6000
2040
2640
3800
3010
3090
3640
2400
ENDCHAR
STARTCHAR ecaron
ENCODING 283
SWIDTH 461 0
DWIDTH 6 0
BBX 6 11 0 0
BITMAP
2050
0A40
0000
0500
1980
2180
7900
E010
5060
1180
2A00
ENDCHAR
STARTCHAR Gcircumflex
ENCODING 284
SWIDTH 591 0
DWIDTH 8 0
BBX 8 15 0 -2
BITMAP
0240
0550
0824
0404
0190
0600
0800
2416
205D
501C
803C
9198
2A08
0008
0004
ENDCHAR
STARTCHAR gcircumflex
ENCODING 285
SWIDTH 437 0
DWIDTH 6 0
BBX 6 19 0 -6
BITMAP
0900
1640
2090
5000
0000
0280
09D0
21D0
2290
9590
8860
B460
0060
0060
0050
0090
0080
0240
1900
ENDCHAR
STARTCHAR Gbreve
ENCODING 286
SWIDTH 591 0
DWIDTH 8 0
BBX 8 13 0 -2
BITMAP
0260
0090
0190
0600
0800
2416
205D
501C
803C
9198
2A08
0008
0004
ENDCHAR
STARTCHAR gbreve
ENCODING 287
SWIDTH 437 0
DWIDTH 6 0
BBX 6 18 0 -6
BITMAP
0040
1980
0600
0000
0280
09D0
21D0
2290
9590
8860
B460
0060
0060
0050
0090
0080
0240
1900
ENDCHAR
STARTCHAR Gdotaccent
ENCODING 288
SWIDTH 591 0
DWIDTH 8 0
BBX 8 14 0 -2
BITMAP
0040
0040
0000
01A0
0200
0800
1416
201A
200D
502D
6199
2A49
0009
0004
ENDCHAR
STARTCHAR gdotaccent
ENCODING 289
SWIDTH 437 0
DWIDTH 6 0
BBX 6 16 0 -6
BITMAP
0100
0100
0280
09D0
21D0
2290
9590
8860
B460
0060
0060
0050
0090
0080
0240
1900
ENDCHAR
STARTCHAR Gcommaaccent
ENCODING 290
SWIDTH 591 0
DWIDTH 8 0
BBX 8 14 0 -5
BITMAP
0190
0600
0800
2416
205D
501C
803C
9198
2A08
0008
0144
0180
0140
0100
ENDCHAR
STARTCHAR Hcircumflex
ENCODING 292
SWIDTH 424 0
DWIDTH 6 0
BBX 6 14 0 0
BITMAP
0C00
2200
5080
4040
0000
8080
9080
9080
50C0
5680
7450
5050
5050
5010
ENDCHAR
STARTCHAR hcircumflex
ENCODING 293
SWIDTH 466 0
DWIDTH 7 0
BBX 7 13 0 0
BITMAP
0280
0250
0824
9404
9000
9000
91A0
9720
9D20
A820
B020
A024
5024
ENDCHAR
STARTCHAR Hbar
ENCODING 294
SWIDTH 424 0
DWIDTH 6 0
BBX 6 9 0 0
BITMAP
8080
9080
AAC0
50C0
5680
7450
5050
5050
5010
ENDCHAR
STARTCHAR hbar
ENCODING 295
SWIDTH 466 0
DWIDTH 7 0
BBX 8 10 -1 0
BITMAP
2400
2400
2980
65A8
25C8
2748
2A08
2C08
2809
1409
ENDCHAR
STARTCHAR Itilde
ENCODING 296
SWIDTH 153 0
DWIDTH 2 0
BBX 6 14 -2 0
BITMAP
2920
5290
0000
0100
0200
0200
0200
0200
0200
0200
0200
0200
0200
0200
ENDCHAR
STARTCHAR itilde
ENCODING 297
SWIDTH 132 0
DWIDTH 2 0
BBX 6 11 -2 0
BITMAP
6850
4680
0000
0500
0900
0900
0900
0900
0500
0500
0500
ENDCHAR
STARTCHAR imacron
ENCODING 299
SWIDTH 132 0
DWIDTH 2 0
BBX 5 11 -2 0
BITMAP
0140
6940
0000
0500
0900
0900
0900
0900
0500
0500
0500
ENDCHAR
STARTCHAR Ibreve
ENCODING 300
SWIDTH 153 0
DWIDTH 2 0
BBX 4 14 -1 0
BITMAP
01
66
18
04
08
08
08
08
08
08
08
08
08
08
ENDCHAR
STARTCHAR ibreve
ENCODING 301
SWIDTH 132 0
DWIDTH 2 0
BBX 4 11 -1 0
BITMAP
56
28
00
14
24
24
24
24
14
14
14
ENDCHAR
STARTCHAR Iogonek
ENCODING 302
SWIDTH 153 0
DWIDTH 2 0
BBX 4 14 0 -3
BITMAP
10
20
20
20
20
20
20
20
20
20
60
80
85
68
ENDCHAR
STARTCHAR iogonek
ENCODING 303
SWIDTH 132 0
DWIDTH 2 0
BBX 4 14 -1 -3
BITMAP
10
10
00
14
24
24
24
24
14
14
14
20
50
2A
ENDCHAR
STARTCHAR Idotaccent
ENCODING 304
SWIDTH 153 0
DWIDTH 2 0
BBX 2 13 0 0
BITMAP
10
00
00
50
50
50
60
60
20
20
20
20
20
ENDCHAR
STARTCHAR dotlessi
ENCODING 305
SWIDTH 132 0
DWIDTH 2 0
BBX 2 8 0 0
BITMAP
50
90
90
90
90
50
50
50
ENDCHAR
STARTCHAR Jcircumflex
ENCODING 308
SWIDTH 371 0
DWIDTH 5 0
BBX 6 15 0 -1
BITMAP
0600
0980
1450
1010
0200
0200
0240
0140
0140
0180
0080
0080
4080
5080
1A00
ENDCHAR
STARTCHAR jcircumflex
ENCODING 309
SWIDTH 112 0
DWIDTH 2 0
BBX 5 18 -2 -5
BITMAP
0C00
2200
6080
4040
0000
0000
0800
0800
0800
0900
0500
0500
0500
0500
0500
0500
8800
2400
ENDCHAR
STARTCHAR Kcommaaccent
ENCODING 310
SWIDTH 524 0
DWIDTH 7 0
BBX 7 15 0 -5
BITMAP
4000
5050
5180
5200
2500
2800
3400
3AA8
2000
1000
0000
0100
0300
0200
0100
ENDCHAR
STARTCHAR kcommaaccent
ENCODING 311
SWIDTH 428 0
DWIDTH 6 0
BBX 6 16 0 -5
BITMAP
1000
6000
6000
5060
51C0
5240
5A00
A800
B000
AA40
8190
4000
0500
0900
0500
0400
ENDCHAR
STARTCHAR Lacute
ENCODING 313
SWIDTH 537 0
DWIDTH 8 0
BBX 8 10 0 0
BITMAP
0180
5100
9000
5000
5000
6000
6000
6029
6290
7900
ENDCHAR
STARTCHAR lacute
ENCODING 314
SWIDTH 137 0
DWIDTH 2 0
BBX 2 15 0 0
BITMAP
60
80
00
80
80
40
50
50
50
50
50
50
50
60
50
ENDCHAR
STARTCHAR Lcommaaccent
ENCODING 315
SWIDTH 537 0
DWIDTH 8 0
BBX 8 14 0 -5
BITMAP
5000
9000
5000
5000
6000
6000
6029
6290
7900
0000
0100
0200
0200
0100
ENDCHAR
STARTCHAR lcommaaccent
ENCODING 316
SWIDTH 137 0
DWIDTH 2 0
BBX 2 17 0 -5
BITMAP
80
80
40
50
50
50
50
50
50
50
60
50
00
50
90
90
40
ENDCHAR
STARTCHAR Lcaron
ENCODING 317
SWIDTH 537 0
DWIDTH 8 0
BBX 8 13 0 0
BITMAP
2090
0A00
0400
0000
5000
9000
5000
5000
6000
6000
6029
6290
7900
ENDCHAR
STARTCHAR Ldot
ENCODING 319
SWIDTH 537 0
DWIDTH 8 0
BBX 8 9 0 0
BITMAP
5000
9000
5000
5000
6000
6240
6029
6290
7900
ENDCHAR
STARTCHAR ldot
ENCODING 320
SWIDTH 267 0
DWIDTH 4 0
BBX 3 12 0 0
BITMAP
80
80
40
50
50
50
50
50
58
50
60
50
ENDCHAR
STARTCHAR Lslash
ENCODING 321
SWIDTH 537 0
DWIDTH 8 0
BBX 8 9 0 0
BITMAP
5000
9000
5000
5000
5640
B900
6029
6290
7900
ENDCHAR
STARTCHAR lslash
ENCODING 322
SWIDTH 137 0
DWIDTH 2 0
BBX 6 12 -2 0
BITMAP
0800
0800
0400
0500
0500
0500
0500
0650
1B40
5500
0600
0500
ENDCHAR
STARTCHAR Nacute
ENCODING 323
SWIDTH 541 0
DWIDTH 8 0
BBX 7 12 0 0
BITMAP
0200
0510
0014
9018
7408
6808
5608
2148
2098
2028
200C
2004
ENDCHAR
STARTCHAR nacute
ENCODING 324
SWIDTH 483 0
DWIDTH 7 0
BBX 7 10 0 0
BITMAP
0200
0500
82D0
9620
5920
5820
6824
7424
3014
2010
ENDCHAR
STARTCHAR Ncommaaccent
ENCODING 325
SWIDTH 541 0
DWIDTH 8 0
BBX 7 16 0 -5
BITMAP
0010
0014
9018
7408
6808
5608
2148
2098
2028
200C
2004
0000
0100
0240
0200
0100
ENDCHAR
STARTCHAR ncommaaccent
ENCODING 326
SWIDTH 483 0
DWIDTH 7 0
BBX 7 13 0 -5
BITMAP
82D0
9620
5920
5820
6824
7424
3014
2010
0000
0100
0200
0200
0100
ENDCHAR
STARTCHAR Ncaron
ENCODING 327
SWIDTH 541 0
DWIDTH 8 0
BBX 7 12 0 0
BITMAP
1460
0950
0114
9018
7408
6808
5608
2148
2098
2028
200C
2004
ENDCHAR
STARTCHAR ncaron
ENCODING 328
SWIDTH 483 0
DWIDTH 7 0
BBX 7 11 0 0
BITMAP
1050
0940
0000
82D0
9620
5920
5820
6824
7424
3014
2010
ENDCHAR
STARTCHAR napostrophe
ENCODING 329
SWIDTH 483 0
DWIDTH 7 0
BBX 7 13 0 0
BITMAP
0400
1800
1400
0000
0000
82D0
9620
5920
5820
6824
7424
3014
2010
ENDCHAR
STARTCHAR Omacron
ENCODING 332
SWIDTH 382 0
DWIDTH 5 0
BBX 6 12 0 0
BITMAP
0150
2950
0500
1A80
2080
6080
5080
8080
8080
8180
9200
3900
ENDCHAR
STARTCHAR omacron
ENCODING 333
SWIDTH 266 0
DWIDTH 4 0
BBX 5 11 -1 0
BITMAP
0140
6940
0000
0900
1A00
1140
2140
2140
2140
2200
1D00
ENDCHAR
STARTCHAR Obreve
ENCODING 334
SWIDTH 382 0
DWIDTH 5 0
BBX 5 12 0 0
BITMAP
2640
0900
0500
1A80
2080
6080
5080
8080
8080
8180
9200
3900
ENDCHAR
STARTCHAR obreve
ENCODING 335
SWIDTH 266 0
DWIDTH 4 0
BBX 4 11 0 0
BITMAP
01
56
14
24
68
45
85
85
85
88
74
ENDCHAR
STARTCHAR Ohungarumlaut
ENCODING 336
SWIDTH 382 0
DWIDTH 5 0
BBX 6 13 0 0
BITMAP
0100
0690
0040
0500
1A80
2080
6080
5080
8080
8080
8180
9200
3900
ENDCHAR
STARTCHAR ohungarumlaut
ENCODING 337
SWIDTH 266 0
DWIDTH 4 0
BBX 4 11 0 0
BITMAP
10
69
04
24
68
45
85
85
85
88
74
ENDCHAR
STARTCHAR OE
ENCODING 338
SWIDTH 732 0
DWIDTH 10 0
BBX 10 10 0 0
BITMAP
058680
1AE800
209000
608040
509640
80A400
80E010
81D090
929600
397400
ENDCHAR
STARTCHAR oe
ENCODING 339
SWIDTH 628 0
DWIDTH 9 0
BBX 9 8 0 0
BITMAP
241400
689A00
469900
87E000
874080
870240
8A0900
64A400
ENDCHAR
STARTCHAR Racute
ENCODING 340
SWIDTH 503 0
DWIDTH 7 0
BBX 7 13 0 0
BITMAP
0180
0100
56A0
7918
5020
5180
6900
6000
7900
5690
5068
5000
4000
ENDCHAR
STARTCHAR racute
ENCODING 341
SWIDTH 396 0
DWIDTH 6 0
BBX 5 10 0 0
BITMAP
0600
0400
0000
8780
5C00
6800
2800
3400
3400
2400
ENDCHAR
STARTCHAR Rcommaaccent
ENCODING 342
SWIDTH 503 0
DWIDTH 7 0
BBX 7 16 0 -5
BITMAP
56A0
7918
5020
5180
6900
6000
7900
5690
5068
5000
4000
0000
0100
0300
0200
0100
ENDCHAR
STARTCHAR rcommaaccent
ENCODING 343
SWIDTH 396 0
DWIDTH 6 0
BBX 5 12 0 -5
BITMAP
8780
5C00
6800
2800
3400
3400
2400
0000
0400
0900
0800
0400
ENDCHAR
STARTCHAR Rcaron
ENCODING 344
SWIDTH 503 0
DWIDTH 7 0
BBX 7 14 0 0
BITMAP
1420
0580
0100
56A0
7918
5020
5180
6900
6000
7900
5690
5068
5000
4000
ENDCHAR
STARTCHAR rcaron
ENCODING 345
SWIDTH 396 0
DWIDTH 6 0
BBX 5 11 0 0
BITMAP
5080
1600
0400
0000
8780
5C00
6800
2800
3400
3400
2400
ENDCHAR
STARTCHAR Sacute
ENCODING 346
SWIDTH 541 0
DWIDTH 8 0
BBX 7 12 0 0
BITMAP
0180
0200
06A0
1800
6000
8000
8000
6500
0568
0008
01A0
0900
ENDCHAR
STARTCHAR sacute
ENCODING 347
SWIDTH 366 0
DWIDTH 5 0
BBX 5 10 0 0
BITMAP
0600
0800
0000
1A00
2000
9000
9A80
1480
0240
1900
ENDCHAR
STARTCHAR Scircumflex
ENCODING 348
SWIDTH 541 0
DWIDTH 8 0
BBX 7 14 0 0
BITMAP
0240
0590
0824
1404
06A0
1800
6000
8000
8000
6500
0568
0008
01A0
0900
ENDCHAR
STARTCHAR scircumflex
ENCODING 349
SWIDTH 366 0
DWIDTH 5 0
BBX 5 11 0 0
BITMAP
0C00
2200
5080
4040
1A00
2000
9000
9A80
1480
0240
1900
ENDCHAR
STARTCHAR Scedilla
ENCODING 350
SWIDTH 541 0
DWIDTH 8 0
BBX 8 15 0 -5
BITMAP
06A0
1800
6000
8000
8000
6500
0568
0008
01A0
0940
0050
0074
000A
006D
0010
ENDCHAR
STARTCHAR scedilla
ENCODING 351
SWIDTH 366 0
DWIDTH 5 0
BBX 5 12 0 -5
BITMAP
1A00
2000
9000
9A80
1480
0240
1900
0800
0E00
01C0
06C0
0500
ENDCHAR
STARTCHAR Scaron
ENCODING 352
SWIDTH 541 0
DWIDTH 8 0
BBX 7 13 0 0
BITMAP
1420
0580
0100
06A0
1800
6000
8000
8000
6500
0568
0008
01A0
0900
ENDCHAR
STARTCHAR scaron
ENCODING 353
SWIDTH 366 0
DWIDTH 5 0
BBX 5 10 0 0
BITMAP
5180
2500
0400
1A00
2000
9000
9A80
1480
0240
1900
ENDCHAR
STARTCHAR Tcommaaccent
ENCODING 354
SWIDTH 595 0
DWIDTH 8 0
BBX 10 15 0 -5
BITMAP
01AA90
A99000
005000
005000
005000
006000
002000
002000
002000
002000
000000
001400
001400
001400
001000
ENDCHAR
STARTCHAR tcommaaccent
ENCODING 355
SWIDTH 268 0
DWIDTH 4 0
BBX 5 16 -1 -5
BITMAP
0400
0800
0800
0A80
6D00
6800
1800
0800
0800
0800
0800
0000
0400
0900
0800
0400
ENDCHAR
STARTCHAR Tcaron
ENCODING 356
SWIDTH 595 0
DWIDTH 8 0
BBX 10 14 0 0
BITMAP
010500
009400
000000
000000
01AA90
A99000
005000
005000
005000
006000
002000
002000
002000
002000
ENDCHAR
STARTCHAR Tbar
ENCODING 358
SWIDTH 595 0
DWIDTH 8 0
BBX 10 10 0 0
BITMAP
01AA90
A99000
005000
06A900
005000
006000
002000
002000
002000
002000
ENDCHAR
STARTCHAR Utilde
ENCODING 360
SWIDTH 450 0
DWIDTH 6 0
BBX 6 14 0 -2
BITMAP
2920
5290
0000
0010
9030
9060
5060
50A0
50A0
51A0
6220
2920
0020
0010
ENDCHAR
STARTCHAR utilde
ENCODING 361
SWIDTH 387 0
DWIDTH 5 0
BBX 5 10 0 0
BITMAP
6880
8A80
0100
4040
9180
5180
5180
5280
5680
2880
ENDCHAR
STARTCHAR Umacron
ENCODING 362
SWIDTH 450 0
DWIDTH 6 0
BBX 6 13 0 -2
BITMAP
0150
6950
0010
9030
9060
5060
50A0
50A0
51A0
6220
2920
0020
0010
ENDCHAR
STARTCHAR umacron
ENCODING 363
SWIDTH 387 0
DWIDTH 5 0
BBX 5 11 0 0
BITMAP
0140
6940
0000
0000
4040
9180
5180
5180
5280
5680
2880
ENDCHAR
STARTCHAR Ubreve
ENCODING 364
SWIDTH 450 0
DWIDTH 6 0
BBX 6 13 0 -2
BITMAP
0040
1980
0610
9030
9060
5060
50A0
50A0
51A0
6220
2920
0020
0010
ENDCHAR
STARTCHAR ubreve
ENCODING 365
SWIDTH 387 0
DWIDTH 5 0
BBX 5 10 0 0
BITMAP
2640
0900
0000
4040
9180
5180
5180
5280
5680
2880
ENDCHAR
STARTCHAR Uring
ENCODING 366
SWIDTH 450 0
DWIDTH 6 0
BBX 6 14 0 -2
BITMAP
0500
1580
1A40
0010
9030
9060
5060
50A0
50A0
51A0
6220
2920
0020
0010
ENDCHAR
STARTCHAR uring
ENCODING 367
SWIDTH 387 0
DWIDTH 5 0
BBX 5 10 0 0
BITMAP
0500
2640
2A00
4040
9180
5180
5180
5280
5680
2880
ENDCHAR
STARTCHAR Uhungarumlaut
ENCODING 368
SWIDTH 450 0
DWIDTH 6 0
BBX 6 14 0 -2
BITMAP
0500
0A80
0100
0010
9030
9060
5060
50A0
50A0
51A0
6220
2920
0020
0010
ENDCHAR
STARTCHAR uhungarumlaut
ENCODING 369
SWIDTH 387 0
DWIDTH 5 0
BBX 5 10 0 0
BITMAP
0400
2A00
0400
4040
9180
5180
5180
5280
5680
2880
ENDCHAR
STARTCHAR Uogonek
ENCODING 370
SWIDTH 450 0
DWIDTH 6 0
BBX 7 13 0 -4
BITMAP
0010
9030
9060
5060
50A0
50A0
51A0
6220
2920
0070
0090
0084
0068
ENDCHAR
STARTCHAR uogonek
ENCODING 371
SWIDTH 387 0
DWIDTH 5 0
BBX 6 11 0 -4
BITMAP
4040
9180
5180
5180
5280
5680
29C0
0240
0200
02A0
0040
ENDCHAR
STARTCHAR Wcircumflex
ENCODING 372
SWIDTH 878 0
DWIDTH 12 0
BBX 12 14 0 0
BITMAP
002400
005500
008240
004041
000002
400805
501D08
202608
202208
141214
1851A4
0C80A0
0A8060
074000
ENDCHAR
STARTCHAR wcircumflex
ENCODING 373
SWIDTH 566 0
DWIDTH 8 0
BBX 8 13 0 0
BITMAP
0240
0590
0820
1000
0000
0000
8345
6285
2655
1A29
0E1D
0909
0500
ENDCHAR
STARTCHAR Ycircumflex
ENCODING 374
SWIDTH 483 0
DWIDTH 7 0
BBX 7 15 0 0
BITMAP
0600
0980
2450
1010
0004
0014
8020
6020
2450
0980
0280
0240
0200
0200
0500
ENDCHAR
STARTCHAR ycircumflex
ENCODING 375
SWIDTH 363 0
DWIDTH 5 0
BBX 5 18 0 -5
BITMAP
1800
2200
5180
4040
0000
0000
4080
9080
2080
1880
0980
0380
0180
0180
0140
0140
0140
0140
ENDCHAR
STARTCHAR Ydieresis
ENCODING 376
SWIDTH 483 0
DWIDTH 7 0
BBX 7 11 0 0
BITMAP
0444
0454
8020
6020
2450
0980
0280
0240
0200
0200
0500
ENDCHAR
STARTCHAR Zacute
ENCODING 377
SWIDTH 670 0
DWIDTH 9 0
BBX 9 13 0 0
BITMAP
009000
014000
000000
6AA900
001900
001800
006000
008000
024000
090000
180000
200040
BFEA80
ENDCHAR
STARTCHAR zacute
ENCODING 378
SWIDTH 618 0
DWIDTH 9 0
BBX 9 10 0 0
BITMAP
009000
004000
000000
019000
699000
008000
024000
020000
051A80
0BA400
ENDCHAR
STARTCHAR Zdotaccent
ENCODING 379
SWIDTH 670 0
DWIDTH 9 0
BBX 9 12 0 0
BITMAP
004000
004000
6AA900
001900
001800
006000
008000
024000
090000
180000
200040
BFEA80
ENDCHAR
STARTCHAR zdotaccent
ENCODING 380
SWIDTH 618 0
DWIDTH 9 0
BBX 9 9 0 0
BITMAP
004000
004000
019000
699000
008000
024000
020000
051A80
0BA400
ENDCHAR
STARTCHAR Zcaron
ENCODING 381
SWIDTH 670 0
DWIDTH 9 0
BBX 9 13 0 0
BITMAP
020800
01A000
004000
6AA900
001900
001800
006000
008000
024000
090000
180000
200040
BFEA80
ENDCHAR
STARTCHAR zcaron
ENCODING 382
SWIDTH 618 0
DWIDTH 9 0
BBX 9 10 0 0
BITMAP
082000
068000
010000
019000
699000
008000
024000
020000
051A80
0BA400
ENDCHAR
STARTCHAR florin
ENCODING 402
SWIDTH 345 0
DWIDTH 5 0
BBX 5 17 0 -4
BITMAP
0400
1A00
1500
2400
2400
2000
2740
7400
2000
2400
1400
1400
1400
1400
1400
6400
6000
ENDCHAR
STARTCHAR AEacute
ENCODING 508
SWIDTH 708 0
DWIDTH 10 0
BBX 10 13 0 0
BITMAP
008000
010000
100000
248A40
28E400
258000
228140
229900
62E000
6AD010
60D180
909900
406000
ENDCHAR
STARTCHAR aeacute
ENCODING 509
SWIDTH 705 0
DWIDTH 10 0
BBX 10 10 0 0
BITMAP
002000
005000
061A00
0E6240
26AA00
63E000
96C050
88C180
A4D600
90A400
ENDCHAR
STARTCHAR Oslashacute
ENCODING 510
SWIDTH 382 0
DWIDTH 5 0
BBX 5 13 0 -1
BITMAP
0200
0500
0540
1A80
2280
6280
5580
8880
8880
9580
A200
3900
1000
ENDCHAR
STARTCHAR oslashacute
ENCODING 511
SWIDTH 266 0
DWIDTH 4 0
BBX 4 12 0 -1
BITMAP
08
10
00
26
69
49
99
A5
A5
98
B4
80
ENDCHAR
STARTCHAR Scommaaccent
ENCODING 536
SWIDTH 541 0
DWIDTH 8 0
BBX 7 15 0 -5
BITMAP
06A0
1800
6000
8000
8000
6500
0568
0008
01A0
0900
0000
0100
0240
0200
0100
ENDCHAR
STARTCHAR scommaaccent
ENCODING 537
SWIDTH 366 0
DWIDTH 5 0
BBX 5 12 0 -5
BITMAP
1A00
2000
9000
9A80
1480
0240
1900
0000
0800
0C00
0800
0400
ENDCHAR
STARTCHAR circumflex
ENCODING 710
SWIDTH 390 0
DWIDTH 5 0
BBX 5 4 0 9
BITMAP
0C00
2600
2080
4040
ENDCHAR
STARTCHAR caron
ENCODING 711
SWIDTH 390 0
DWIDTH 5 0
BBX 5 3 1 8
BITMAP
8240
2800
1000
ENDCHAR
STARTCHAR breve
ENCODING 728
SWIDTH 390 0
DWIDTH 5 0
BBX 4 2 1 8
BITMAP
99
24
ENDCHAR
STARTCHAR dotaccent
ENCODING 729
SWIDTH 128 0
DWIDTH 2 0
BBX 1 2 0 7
BITMAP
40
40
ENDCHAR
STARTCHAR ring
ENCODING 730
SWIDTH 266 0
DWIDTH 4 0
BBX 4 3 0 7
BITMAP
14
99
69
ENDCHAR
STARTCHAR ogonek
ENCODING 731
SWIDTH 366 0
DWIDTH 5 0
BBX 4 4 1 -4
BITMAP
60
80
A9
14
ENDCHAR
STARTCHAR tilde
ENCODING 732
SWIDTH 458 0
DWIDTH 6 0
BBX 6 2 0 8
BITMAP
2920
5290
ENDCHAR
STARTCHAR hungarumlaut
ENCODING 733
SWIDTH 239 0
DWIDTH 3 0
BBX 3 3 0 6
BITMAP
10
A8
10
ENDCHAR
STARTCHAR Wgrave
ENCODING 7808
SWIDTH 878 0
DWIDTH 12 0
BBX 12 13 0 0
BITMAP
001800
000400
000001
000002
400805
501D08
202608
202208
141214
1851A4
0C80A0
0A8060
074000
ENDCHAR
STARTCHAR wgrave
ENCODING 7809
SWIDTH 566 0
DWIDTH 8 0
BBX 8 10 0 0
BITMAP
0200
0140
0000
8345
6285
2655
1A29
0E1D
0909
0500
ENDCHAR
STARTCHAR Wacute
ENCODING 7810
SWIDTH 878 0
DWIDTH 12 0
BBX 12 13 0 0
BITMAP
001400
002000
000001
000002
400805
501D08
202608
202208
141214
1851A4
0C80A0
0A8060
074000
ENDCHAR
STARTCHAR wacute
ENCODING 7811
SWIDTH 566 0
DWIDTH 8 0
BBX 8 10 0 0
BITMAP
0080
0140
0000
8345
6285
2655
1A29
0E1D
0909
0500
ENDCHAR
STARTCHAR Wdieresis
ENCODING 7812
SWIDTH 878 0
DWIDTH 12 0
BBX 12 12 0 0
BITMAP
001100
001101
000002
400805
501D08
202608
202208
141214
1851A4
0C80A0
0A8060
074000
ENDCHAR
STARTCHAR wdieresis
ENCODING 7813
SWIDTH 566 0
DWIDTH 8 0
BBX 8 11 0 0
BITMAP
0140
0140
0000
0000
8345
6285
2655
1A29
0E1D
0909
0500
ENDCHAR
STARTCHAR Ygrave
ENCODING 7922
SWIDTH 483 0
DWIDTH 7 0
BBX 7 13 0 0
BITMAP
0600
0100
0004
0014
8020
6020
2450
0980
0280
0240
0200
0200
0500
ENDCHAR
STARTCHAR ygrave
ENCODING 7923
SWIDTH 363 0
DWIDTH 5 0
BBX 5 15 0 -5
BITMAP
1800
0400
0000
4080
9080
2080
1880
0980
0380
0180
0180
0140
0140
0140
0140
ENDCHAR
STARTCHAR endash
ENCODING 8211
SWIDTH 399 0
DWIDTH 6 0
BBX 5 3 0 2
BITMAP
0040
1A40
5000
ENDCHAR
STARTCHAR emdash
ENCODING 8212
SWIDTH 549 0
DWIDTH 8 0
BBX 7 3 0 2
BITMAP
0004
1AA4
5000
ENDCHAR
STARTCHAR quoteleft
ENCODING 8216
SWIDTH 155 0
DWIDTH 2 0
BBX 2 4 0 5
BITMAP
40
50
50
50
ENDCHAR
STARTCHAR quoteright
ENCODING 8217
SWIDTH 155 0
DWIDTH 2 0
BBX 2 4 0 5
BITMAP
40
50
50
50
ENDCHAR
STARTCHAR quotesinglbase
ENCODING 8218
SWIDTH 155 0
DWIDTH 2 0
BBX 2 4 0 0
BITMAP
50
60
50
10
ENDCHAR
STARTCHAR quotedblleft
ENCODING 8220
SWIDTH 212 0
DWIDTH 3 0
BBX 3 4 0 7
BITMAP
84
54
54
54
ENDCHAR
STARTCHAR quotedblright
ENCODING 8221
SWIDTH 212 0
DWIDTH 3 0
BBX 3 4 0 7
BITMAP
84
54
54
54
ENDCHAR
STARTCHAR quotedblbase
ENCODING 8222
SWIDTH 212 0
DWIDTH 3 0
BBX 3 4 0 0
BITMAP
84
58
58
54
ENDCHAR
STARTCHAR dagger
ENCODING 8224
SWIDTH 268 0
DWIDTH 4 0
BBX 5 11 -1 0
BITMAP
0400
0800
0800
0A80
6D00
6800
1800
0800
0800
0800
0800
ENDCHAR
STARTCHAR daggerdbl
ENCODING 8225
SWIDTH 326 0
DWIDTH 5 0
BBX 5 11 0 0
BITMAP
1400
1400
1400
1A40
7900
6640
7900
1400
1400
1400
1400
ENDCHAR
STARTCHAR bullet
ENCODING 8226
SWIDTH 189 0
DWIDTH 3 0
BBX 3 2 0 3
BITMAP
74
60
ENDCHAR
STARTCHAR ellipsis
ENCODING 8230
SWIDTH 387 0
DWIDTH 5 0
BBX 5 1 0 0
BITMAP
5880
ENDCHAR
STARTCHAR guilsinglleft
ENCODING 8249
SWIDTH 409 0
DWIDTH 6 0
BBX 6 7 0 2
BITMAP
0050
0180
0A00
2400
6000
1A00
01D0
ENDCHAR
STARTCHAR guilsinglright
ENCODING 8250
SWIDTH 450 0
DWIDTH 6 0
BBX 6 7 0 2
BITMAP
7400
0A40
0090
0090
0240
0900
2400
ENDCHAR
STARTCHAR fraction
ENCODING 8260
SWIDTH 306 0
DWIDTH 4 0
BBX 4 11 0 -1
BITMAP
02
02
05
08
08
14
20
20
50
80
80
ENDCHAR
STARTCHAR Euro
ENCODING 8364
SWIDTH 589 0
DWIDTH 8 0
BBX 8 10 0 0
BITMAP
01A4
0200
0600
0800
6E80
1800
1A90
6401
0809
06A4
ENDCHAR
STARTCHAR trademark
ENCODING 8482
SWIDTH 1278 0
DWIDTH 18 0
BBX 18 11 0 0
BITMAP
0000200100
01AAB80240
A990290240
0050220540
0050224880
0050208880
006020A480
0020202080
0020240080
0020240090
0020240050
ENDCHAR
STARTCHAR minus
ENCODING 8722
SWIDTH 358 0
DWIDTH 5 0
BBX 4 2 1 3
BITMAP
55
54
ENDCHAR
STARTCHAR commaaccent
ENCODING 63171
SWIDTH 450 0
DWIDTH 6 0
BBX 2 4 2 -5
BITMAP
50
90
90
40
ENDCHAR
STARTCHAR fi
ENCODING 64257
SWIDTH 409 0
DWIDTH 6 0
BBX 5 13 0 0
BITMAP
0400
1A00
1500
2440
2400
2080
27C0
7480
2080
2480
1480
1480
1480
ENDCHAR
STARTCHAR fl
ENCODING 64258
SWIDTH 416 0
DWIDTH 6 0
BBX 6 13 0 0
BITMAP
0400
1A40
1580
2480
2480
2080
27C0
7440
2050
2450
1450
1450
1490
ENDCHAR
STARTCHAR .notdef
ENCODING -1
SWIDTH 450 0
DWIDTH 6 0
BBX 1 1 0 0
BITMAP
00
ENDCHAR
STARTCHAR .null
ENCODING -1
SWIDTH 0 0
DWIDTH 0 0
BBX 1 1 0 0
BITMAP
00
ENDCHAR
STARTCHAR nonmarkingreturn
ENCODING -1
SWIDTH 450 0
DWIDTH 6 0
BBX 1 1 0 0
BITMAP
00
ENDCHAR
ENDFONT
